<svg id="Layer_1" data-name="Layer 1" xmlns="http://www.w3.org/2000/svg" xmlns:xlink="http://www.w3.org/1999/xlink" viewBox="0 0 260 113.08"><defs><style>.cls-1{fill:none;}.cls-2{clip-path:url(#clip-path);}.cls-3{fill:#010203;}</style><clipPath id="clip-path"><rect class="cls-1" width="260" height="113.08"/></clipPath></defs><g class="cls-2"><path class="cls-3" d="M245.56,102.46c9.1,0,14.44-3.52,14.44-9.8,0-5.4-3.46-8.27-10.62-9.39l-4.52-.64c-2.93-.47-4.4-1.24-4.4-3.06s1.35-2.87,4.63-2.87,5.46,1,5.58,4.28h8.51c-.29-5.92-3.87-10.38-14.09-10.38-8.86,0-13.61,3.52-13.61,9.56,0,5.4,3.81,8.28,10.21,9.27l3.93.65c4.11.64,5.23,1.52,5.23,3.34s-1.41,2.94-5.11,2.94-5.46-1.12-5.81-4.4H231c.53,7.51,5.28,10.5,14.55,10.5M216.73,70.6a11.28,11.28,0,0,0-9.5,5V71.3h-8.92v30.28h9.15V84.68c0-4.46,2.94-6.28,5.75-6.28,3.41,0,4.87,1.82,4.87,5.16v18h9.16V81.75c0-7.52-4.52-11.15-10.51-11.15M178.4,77.34c3.7,0,6.1,2.23,6.75,6H171.77c.7-4.23,3.29-6,6.63-6m15.73,10c0-10.21-6.16-16.72-15.61-16.72s-15.61,6.27-15.61,15.84,6.34,15.84,15.73,15.84c7.27,0,13.14-3.75,14.78-10.15h-8.68c-1.06,2.17-3.05,3.41-6.1,3.41-3.58,0-6.28-2.06-6.93-6.4h22.42ZM148.34,70.6a11.16,11.16,0,0,0-9.27,4.69V59.8h-9.15v41.78h9.15V84.68c0-4.46,2.94-6.28,5.75-6.28,3.41,0,4.87,1.82,4.87,5.16v18h9.16V81.75c0-7.52-4.52-11.15-10.51-11.15M109.91,95c-4.11,0-6.52-2.76-6.52-8.51s2.41-8.51,6.52-8.51,6.45,2.52,6.45,8.28S114,95,109.91,95m2.52-24.35a10.29,10.29,0,0,0-9.16,4.75v-4H94.35v41.78h9.16V97.88a10.22,10.22,0,0,0,8.92,4.4c8.21,0,13.2-6.22,13.2-15.84s-5-15.84-13.2-15.84M74.35,77.34c3.7,0,6.1,2.23,6.75,6H67.72c.7-4.23,3.29-6,6.63-6m15.73,10c0-10.21-6.16-16.72-15.61-16.72S58.86,76.87,58.86,86.44s6.34,15.84,15.73,15.84c7.27,0,13.14-3.75,14.78-10.15H80.69c-1.06,2.17-3,3.41-6.1,3.41-3.58,0-6.28-2.06-6.93-6.4H90.08ZM56.84,78V71.3H51v-9H41.88v9H37.36V78h4.52V93.13c0,6.22,3.16,8.69,10.73,8.69a34,34,0,0,0,4.23-.24V94.77H54.49c-2.35,0-3.46-.41-3.46-2.64V78ZM18.31,102.52C29,102.52,36,98.12,36,89.32c0-7.11-4.4-10.92-14.43-12.74l-3.53-.64c-5.16-1-7.1-2.18-7.1-5.11,0-2.64,2.06-4.22,6.4-4.22,5.58,0,7.63,2,7.86,5.86h9.39c-.35-8.56-6-13.61-17.43-13.61C6.28,58.86.88,64.14.88,71.24c0,7.57,5.16,11.56,14,13.09l3.4.64C24,86,25.76,87.14,25.76,90c0,3.11-2.4,4.81-7.1,4.81-5.16,0-8.92-1.23-9-6.92H0c.06,9,6.4,14.67,18.31,14.67"/><path class="cls-3" d="M142.27,11.91a11.26,11.26,0,0,0-9.5,5V12.62h-8.92V42.9H133V26c0-4.46,2.94-6.28,5.75-6.28,3.41,0,4.87,1.82,4.87,5.16v18h9.16V23.06c0-7.51-4.52-11.15-10.51-11.15m-33.08,31h9.15V12.62h-9.15Zm4.58-33.45A4.73,4.73,0,1,0,109,4.75a4.71,4.71,0,0,0,4.76,4.7M89.29,36.27c-4.11,0-6.51-2.76-6.51-8.51s2.4-8.51,6.51-8.51,6.46,2.52,6.46,8.27-2.41,8.75-6.46,8.75m2.52-24.36a10.25,10.25,0,0,0-8.92,4.4V1.11H73.74V42.9h8.92v-4a10.3,10.3,0,0,0,9.15,4.75C100,43.6,105,37.38,105,27.76s-5-15.85-13.21-15.85m-38,24.36c-4.1,0-6.63-2.76-6.63-8.51s2.53-8.51,6.63-8.51,6.58,2.76,6.58,8.51-2.53,8.51-6.58,8.51m0,7.33c9.63,0,15.85-6.22,15.85-15.84S63.43,11.91,53.8,11.91,37.9,18.13,37.9,27.76,44.12,43.6,53.8,43.6M10.8,9h8.8c3.81,0,6.16,2.29,6.16,5.63s-2.35,5.69-6.16,5.69H10.8ZM26.06,42.9H37.21L26.88,26.52a12.31,12.31,0,0,0,8.8-12.26c0-8.1-5.93-13.15-15.43-13.15H.88V42.9H10.8V28.05H17Z"/></g></svg>