<svg width="320" height="132" viewBox="0 0 320 132" fill="none" xmlns="http://www.w3.org/2000/svg">
<rect width="320" height="132" fill="#F2F2F2"/>
<path d="M126.01 128.204H159.231L128.458 79.4543C145.069 73.8629 154.685 60.5833 154.685 42.9355C154.685 18.8226 137.025 3.7957 108.7 3.7957H51V128.204H80.5494V83.9973H98.9085L126.01 128.204ZM80.5494 27.3844H106.777C118.142 27.3844 125.136 34.1989 125.136 44.1586C125.136 54.1183 118.142 61.1075 106.777 61.1075H80.5494V27.3844Z" fill="#693CFF"/>
<path d="M217.251 131C249.073 131 270.055 117.895 270.055 91.6855C270.055 70.543 256.942 59.1855 227.042 53.7688L216.551 51.8468C201.165 48.8763 195.395 45.3817 195.395 36.6452C195.395 28.7823 201.515 24.0645 214.453 24.0645C231.064 24.0645 237.184 30.0054 237.883 41.5376H265.859C264.81 16.0269 247.849 1 213.929 1C181.407 1 165.321 16.7258 165.321 37.8683C165.321 60.4086 180.708 72.2903 206.935 76.8333L217.076 78.7554C234.211 81.9005 239.457 85.2204 239.457 93.6075C239.457 102.868 232.288 107.935 218.3 107.935C202.913 107.935 191.723 104.266 191.373 87.3172H162.698C162.873 114.226 181.757 131 217.251 131Z" fill="#693CFF"/>
</svg>
